<svg xmlns="http://www.w3.org/2000/svg" viewBox="0 0 40 40" fill="none">
  <rect width="40" height="40" rx="8" fill="#AB9FF2"/>
  <path d="M30.5 19.5C30.5 13.7 25.8 9 20 9C14.2 9 9.5 13.7 9.5 19.5V31H13V25C13 24.17 13.67 23.5 14.5 23.5S16 24.17 16 25V31H18.5V25C18.5 24.17 19.17 23.5 20 23.5S21.5 24.17 21.5 25V31H24V25C24 24.17 24.67 23.5 25.5 23.5S27 24.17 27 25V31H30.5V19.5Z" fill="white"/>
  <circle cx="16" cy="18" r="2" fill="#AB9FF2"/>
  <circle cx="24" cy="18" r="2" fill="#AB9FF2"/>
</svg>
