<svg xmlns="http://www.w3.org/2000/svg" width="108" height="108" viewBox="0 0 108 108" fill="none">
<rect width="108" height="108" rx="26" fill="#19232D"/>
<defs>
  <linearGradient id="jupGrad" x1="54" y1="20" x2="54" y2="88" gradientUnits="userSpaceOnUse">
    <stop offset="0" stop-color="#C7F564"/>
    <stop offset="0.5" stop-color="#5CCFB8"/>
    <stop offset="1" stop-color="#2DB5AD"/>
  </linearGradient>
  <clipPath id="globeClip">
    <circle cx="54" cy="54" r="34"/>
  </clipPath>
</defs>
<g clip-path="url(#globeClip)">
  <path d="M18 26C30 22 78 22 90 26L90 33C78 29 30 29 18 33Z" fill="url(#jupGrad)"/>
  <path d="M14 36C28 31 80 31 94 36L94 43C80 38 28 38 14 43Z" fill="url(#jupGrad)"/>
  <path d="M12 46C28 40 80 40 96 46L96 53C80 47 28 47 12 53Z" fill="url(#jupGrad)"/>
  <path d="M12 55C28 49 80 49 96 55L96 62C80 56 28 56 12 62Z" fill="url(#jupGrad)"/>
  <path d="M14 64C28 58 80 58 94 64L94 71C80 65 28 65 14 71Z" fill="url(#jupGrad)"/>
  <path d="M18 73C30 67 78 67 90 73L90 80C78 74 30 74 18 80Z" fill="url(#jupGrad)"/>
  <path d="M24 81C36 76 72 76 84 81L84 87C72 82 36 82 24 87Z" fill="url(#jupGrad)"/>
</g>
</svg>
